<svg width="108" height="144" viewBox="0 0 108 144" fill="none" xmlns="http://www.w3.org/2000/svg">
<path fill-rule="evenodd" clip-rule="evenodd" d="M96.0002 28.1337C86.4701 11.0912 70.9804 0 53.453 0C36.2682 0 21.0039 10.7124 11.4287 27.241C24.6644 32.48 39.3698 35.4286 54.8595 35.4286C69.4567 35.4286 83.3505 32.8226 96.0002 28.1337Z" fill="#112E33"/>
<path fill-rule="evenodd" clip-rule="evenodd" d="M1.14307 98.2852C6.47343 128.687 27.7949 143.999 53.3 143.999C78.393 143.999 99.374 129.195 105.143 99.8342C90.0123 107.01 71.4949 112.2 53.3537 112.2C33.9136 112.2 17.0177 106.422 1.14307 98.2852V98.2852Z" fill="#112E33"/>
<path fill-rule="evenodd" clip-rule="evenodd" d="M18.0259 69.7135C24.5553 69.7135 30.8318 67.3633 35.239 63.2661L36.5936 62.0156L37.9483 63.2661C42.3373 67.3722 48.6139 69.7135 55.1433 69.7135C61.5101 69.7135 67.4525 67.5762 71.8958 63.7006L73.2053 62.5477L74.5238 63.7006C78.958 67.5762 84.9094 69.7135 91.2763 69.7135C96.7942 69.7135 102.068 68.0107 106.286 64.9865C105.248 55.0749 102.499 45.4091 98.1579 36.4033C84.2021 41.7011 69.3649 44.4047 54.4027 44.3761C37.9573 44.3761 22.3246 41.1568 8.26336 35.4277C4.0265 43.9511 1.23533 53.0966 0 62.5034L0.650232 63.1242C5.07542 67.319 11.4061 69.7135 18.0259 69.7135ZM90.8879 43.3119L100.361 51.2403L90.8879 59.1688L81.4144 51.2403L90.8879 43.3119ZM53.0932 48.3226L62.5667 56.251L53.0932 64.1795L43.6107 56.251L53.0932 48.3226ZM15.163 43.2941L24.6366 51.2137L15.163 59.1422L5.68953 51.2137L15.163 43.2941Z" fill="#112E33"/>
<path fill-rule="evenodd" clip-rule="evenodd" d="M107.158 73.8144C102.676 76.0665 97.4015 78.1362 91.9023 78.1362C85.1521 78.1362 78.8428 75.5832 73.8837 72.3373C68.9425 75.5741 62.6153 78.1362 55.883 78.1362C48.9888 78.1362 42.3645 75.41 37.3874 72C32.3922 75.41 25.7589 78.1362 18.8737 78.1362C11.9974 78.1362 5.4272 75.4282 0.468017 72.0365C0.16143 74.596 0.00514891 77.1717 0 79.75C0 83.0961 0.288011 86.2326 0.738027 89.2597C16.7046 96.4535 33.9222 101.714 53.7679 101.714C72.3446 101.714 91.2363 96.964 106.492 90.5908C107.095 87.1808 107.428 83.5885 107.428 79.75C107.438 77.7681 107.348 75.787 107.158 73.8144ZM34.8223 92.6514C30.3041 92.6514 26.632 89.9526 26.632 86.6247C26.632 83.315 30.3041 80.607 34.8223 80.607C39.3404 80.607 43.0126 83.315 43.0126 86.6247C43.0126 89.9526 39.3404 92.6514 34.8223 92.6514ZM73.2177 92.8337C68.6995 92.8337 65.0273 90.1441 65.0273 86.8161C65.0273 83.4973 68.6995 80.7985 73.2177 80.7985C77.7448 80.7985 81.4169 83.4973 81.4169 86.8161C81.4169 90.1441 77.7448 92.8337 73.2177 92.8337Z" fill="#112E33"/>
</svg>
