<svg width="2880" height="4632" viewBox="0 0 2880 4632" fill="none" xmlns="http://www.w3.org/2000/svg">
<path opacity="0.05" d="M-579.421 1555.07C-342.918 843.781 204.463 417.414 793.6 79.3204C954.096 -12.7011 1209.85 -21.5624 1388.61 38.4221C1813.34 181.226 2217.51 390.149 2632.78 565.672C3050.98 742.217 3325.32 586.802 3196.15 762.666C2853.62 1228.91 2392.69 1371.71 1881.84 1127.69C1647.95 1015.9 1423.84 879.908 1187.01 775.958C799.146 606.229 404.104 625.997 55.3842 935.462C-332.807 1280.03 -488.735 1724.46 -359.882 2249.33C-202.648 2890.07 220.121 3286.1 781.857 3537.97C1449.94 3837.89 2126.82 3778.25 2791.64 3537.97C3117.2 3420.04 3348.49 3166.47 3347.18 2782.71C3346.53 2612.64 3297.92 2356.68 3189.62 2295C3056.2 2218.65 2817.74 2256.82 2661.16 2329.76C2420.74 2442.23 1851.5 3053.32 1208.87 2965.39C810.891 2910.86 475.87 2454.84 495.769 2301.47C511.427 2182.52 517.953 2301.47 1092.41 2216.61C1524.31 2152.87 1840.41 1816.48 2075.94 1665.16C2521.54 1379.21 2900.92 1391.48 3233.01 1810.35C3847.59 2585.37 3447.33 3705.65 2793.28 4200.52C1666.22 5053.6 -63.0294 4613.94 -508.307 3125.57C-527.554 3059.11 -785.913 2301.13 -579.421 1555.07Z" fill="#12495F"/>
</svg>
