<svg width="96" height="96" viewBox="0 0 96 96" fill="none" xmlns="http://www.w3.org/2000/svg">
<path fill-rule="evenodd" clip-rule="evenodd" d="M48 96C74.5097 96 96 74.5097 96 48C96 21.4903 74.5097 0 48 0C21.4903 0 0 21.4903 0 48C0 74.5097 21.4903 96 48 96ZM48 24C61.2548 24 72 34.8108 72 48.1467C72 60.1988 63.2236 70.1885 51.75 72V55.1266H57.3422L58.4062 48.1467H51.75V43.6192C51.75 41.7077 52.68 39.8463 55.6613 39.8463H58.6875V33.9039C58.6875 33.9039 55.9402 33.4323 53.3152 33.4323C47.8331 33.4323 44.25 36.7751 44.25 42.8269V48.1467H38.1562V55.1266H44.25V72C32.7764 70.1885 24 60.1988 24 48.1467C24 34.8108 34.7452 24 48 24Z" fill="white"/>
</svg>
