<svg width="96" height="96" viewBox="0 0 96 96" fill="none" xmlns="http://www.w3.org/2000/svg">
<path fill-rule="evenodd" clip-rule="evenodd" d="M48 96C74.5097 96 96 74.5097 96 48C96 21.4903 74.5097 0 48 0C21.4903 0 0 21.4903 0 48C0 74.5097 21.4903 96 48 96ZM24.776 24.776C25.2728 24.2791 25.9467 24 26.6493 24H69.3507C70.0533 24 70.7272 24.2791 71.224 24.776C71.7209 25.2728 72 25.9467 72 26.6493V69.3507C72 70.0532 71.721 70.727 71.2243 71.2238C70.7276 71.7206 70.0539 71.9998 69.3513 72H57.1193V53.4127H63.3587L64.2927 46.1687H57.1193V41.5433C57.1193 39.446 57.7013 38.0167 60.7093 38.0167L64.5453 38.0147V31.5353C63.8813 31.4467 61.6047 31.25 58.9553 31.25C53.4247 31.25 49.638 34.6253 49.638 40.8253V46.168H43.3827V53.412H49.638V72H26.6493C25.9468 72 25.273 71.721 24.7762 71.2243C24.2794 70.7276 24.0002 70.0539 24 69.3513V26.6493C24 25.9467 24.2791 25.2728 24.776 24.776Z" fill="#FFEDE9"/>
</svg>
