<?xml version="1.0" encoding="utf-8"?>
<!-- Generator: Adobe Illustrator 24.1.0, SVG Export Plug-In . SVG Version: 6.00 Build 0)  -->
<svg version="1.1" id="Lager_1" xmlns="http://www.w3.org/2000/svg" xmlns:xlink="http://www.w3.org/1999/xlink" x="0px" y="0px"
	 viewBox="0 0 841.89 595.28" style="enable-background:new 0 0 841.89 595.28;" xml:space="preserve">
<style type="text/css">
	.st0{fill:#F2F2F2;}
</style>
<circle class="st0" cx="416.89" cy="-9.93" r="3.23"/>
<circle class="st0" cx="510.31" cy="-9.93" r="3.23"/>
<g>
	<path class="st0" d="M302.37,328.38c-2.41,0.86-5.29,1.3-8.64,1.3c-3.41,0-6.46-0.72-9.17-2.15c-2.7-1.43-4.99-3.47-6.85-6.12
		c-1.87-2.65-3.3-5.81-4.3-9.49c-1-3.68-1.5-7.76-1.5-12.25c0-4.38,0.49-8.41,1.46-12.08c0.97-3.68,2.38-6.86,4.22-9.53
		c1.84-2.68,4.06-4.76,6.65-6.25s5.52-2.23,8.76-2.23c3.41,0,6.35,0.61,8.84,1.83c2.49,1.22,4.52,2.93,6.08,5.15l-5.6,6.81
		c-2.16-3.14-5.08-4.7-8.76-4.7c-2,0-3.74,0.57-5.23,1.7c-1.49,1.13-2.72,2.66-3.69,4.58c-0.97,1.92-1.7,4.15-2.19,6.69
		c-0.49,2.54-0.73,5.22-0.73,8.03c0,2.92,0.24,5.67,0.73,8.23c0.49,2.57,1.22,4.81,2.19,6.73c0.97,1.92,2.2,3.42,3.69,4.5
		c1.49,1.08,3.26,1.62,5.31,1.62c1.3,0,2.48-0.15,3.53-0.45c1.05-0.3,1.91-0.69,2.56-1.18v-14.85h-6.98v-8.44h15.82v29.12
		C306.84,326.38,304.77,327.51,302.37,328.38z"/>
	<path class="st0" d="M344.67,328.46l-2.84-12.17h-15.09l-2.92,12.17h-9.73l14.28-57.43h12.41l14.03,57.43H344.67z M334.53,280.2
		h-0.32l-6.25,28.47h12.65L334.53,280.2z"/>
	<path class="st0" d="M374.52,279.3v49.15h-9.57V279.3h-10.79v-8.27h31.15v8.27H374.52z"/>
	<path class="st0" d="M418.64,328.46v-25.47h-17.2v25.47h-9.65v-57.43h9.65v23.28h17.2v-23.28h9.65v57.43H418.64z"/>
	<path class="st0" d="M440.78,328.46v-57.43h25.71v8.6h-16.39v15.25h15.17v7.95h-15.17v16.95h17.2v8.68H440.78z"/>
	<path class="st0" d="M502.11,328.46l-16.3-40.56h-0.24l0.16,40.56h-8.76v-57.43h11.11l16.14,40.8h0.24l-0.08-40.8h8.44v57.43
		H502.11z"/>
	<path class="st0" d="M552.15,328.46v-25.47h-17.2v25.47h-9.65v-57.43h9.65v23.28h17.2v-23.28h9.65v57.43H552.15z"/>
	<path class="st0" d="M595.15,328.46v-57.43h25.71v8.6h-16.39v15.25h15.17v7.95h-15.17v16.95h17.2v8.68H595.15z"/>
	<path class="st0" d="M573.6,328.46v-57.43h9.73v57.43H573.6z"/>
	<path class="st0" d="M632.7,328.46v-57.43h9.82v48.42h15.82v9H632.7z"/>
	<path class="st0" d="M704.89,328.46l0.16-44.12h-0.24l-11.52,44.12h-7.62l-11.28-44.12h-0.24l0.16,44.12h-8.84v-57.43h13.06
		l11.03,42.01h0.32l10.79-42.01h13.71v57.43H704.89z"/>
	<path class="st0" d="M749.34,282.14c-2.11-2.54-4.76-3.81-7.95-3.81c-0.92,0-1.81,0.15-2.68,0.45c-0.86,0.3-1.65,0.77-2.35,1.42
		c-0.7,0.65-1.25,1.49-1.66,2.51c-0.4,1.03-0.6,2.24-0.6,3.65c0,2.43,0.73,4.31,2.19,5.63c1.46,1.33,3.38,2.59,5.76,3.77
		c1.4,0.7,2.84,1.52,4.3,2.43c1.46,0.92,2.79,2.03,3.98,3.32c1.19,1.3,2.16,2.84,2.92,4.63c0.76,1.78,1.14,3.89,1.14,6.33
		c0,2.81-0.45,5.3-1.34,7.46c-0.89,2.16-2.08,3.99-3.56,5.48c-1.49,1.49-3.23,2.61-5.24,3.37c-2,0.76-4.11,1.13-6.33,1.13
		c-3.19,0-6.14-0.62-8.84-1.87c-2.71-1.24-4.87-2.81-6.49-4.71l5.27-7.14c1.24,1.52,2.74,2.7,4.5,3.57c1.76,0.87,3.56,1.3,5.39,1.3
		c2.05,0,3.76-0.7,5.11-2.11c1.35-1.4,2.02-3.38,2.02-5.92c0-2.48-0.81-4.46-2.43-5.92c-1.62-1.46-3.68-2.81-6.16-4.06
		c-1.57-0.76-3.04-1.59-4.42-2.51c-1.38-0.92-2.59-2.01-3.65-3.28c-1.05-1.27-1.89-2.76-2.51-4.46c-0.62-1.7-0.93-3.74-0.93-6.12
		c0-2.97,0.47-5.53,1.42-7.67c0.94-2.14,2.19-3.91,3.73-5.31c1.54-1.4,3.28-2.44,5.23-3.12c1.95-0.68,3.92-1.02,5.93-1.02
		c2.92,0,5.52,0.48,7.83,1.42c2.3,0.95,4.23,2.34,5.8,4.18L749.34,282.14z"/>
	<path class="st0" d="M789.33,328.46l-15.33-27.9h-0.24v27.9h-9.73v-57.43h9.73v24.9h0.24l14.6-24.9h10.95l-16.87,26.44l17.93,30.99
		H789.33z"/>
	<path class="st0" d="M831.75,328.46l-2.84-12.17h-15.09l-2.92,12.17h-9.73l14.28-57.43h12.41l14.03,57.43H831.75z M821.61,280.2
		h-0.32l-6.25,28.47h12.66L821.61,280.2z"/>
</g>
<path class="st0" d="M4.36,259.82c12.97-37.31,42.96-59.69,75.26-77.43c8.8-4.83,22.81-5.3,32.62-2.14
	c23.28,7.5,45.44,18.46,68.19,27.65c22.92,9.26,37.97,1.11,30.89,10.33c-18.78,24.46-44.04,31.96-72.03,19.15
	c-12.83-5.87-25.1-13-38.09-18.45c-21.27-8.91-42.92-7.87-62.03,8.36c-21.28,18.08-29.82,41.39-22.76,68.92
	c8.61,33.61,31.8,54.39,62.58,67.61c36.63,15.73,73.72,12.61,110.16,0c17.85-6.18,30.53-19.5,30.45-39.63
	c-0.03-8.92-2.7-22.35-8.63-25.59c-7.32-4.01-20.38-2.01-28.97,1.83c-13.18,5.89-44.39,37.97-79.6,33.35
	c-21.81-2.86-40.18-26.79-39.08-34.82c0.85-6.23,1.22,0,32.7-4.45c23.68-3.35,41-21,53.92-28.92c24.43-15,45.22-14.35,63.42,7.62
	c33.69,40.66,11.74,99.43-24.1,125.4C127.48,443.37,32.7,420.29,8.29,342.21C7.2,338.73-6.96,298.95,4.36,259.82z"/>
</svg>
