<svg fill="none" height="5276" viewBox="0 0 2880 5276" width="2880" xmlns="http://www.w3.org/2000/svg"><path d="m-1673.93 1770.8c365.78-810.123 1212.35-1295.734 2123.497-1680.807 248.22-104.8081 643.753-114.9006 920.233-46.5813 656.87 162.6463 1281.96 400.6003 1924.2 600.5113 646.79 201.077 1071.08 24.067 871.3 224.367-529.74 531.03-1242.62 693.68-2032.68 415.74-361.74-127.32-708.34-282.21-1074.61-400.601-599.869-193.312-1210.83-170.798-1750.152 181.671-600.368 392.45-841.528 898.63-642.238 1496.42 243.17 729.78 897.017 1180.84 1765.786 1467.7 1033.244 341.6 2080.104 273.67 3108.294 0 503.5-134.3 861.2-423.11 859.18-860.2-1-193.7-76.18-485.22-243.68-555.48-206.34-86.95-575.14-43.48-817.3 39.59-371.83 128.1-1252.2 824.11-2246.09 723.96-615.504-62.11-1133.6369-581.5-1102.8618-756.18 24.2166-135.47 34.3027 0 922.7478-96.65 667.974-72.59 1156.844-455.72 1521.104-628.07 689.16-325.69 1275.91-311.71 1789.51 165.36 950.5 882.72 331.45 2158.66-680.09 2722.29-1743.09 971.61-4417.501 470.86-5106.16-1224.31-29.77-75.7-429.34-939-109.99-1788.73z" fill="#0c0c0c" opacity=".03"/></svg>