<svg width="2880" height="5276" viewBox="0 0 2880 5276" fill="none" xmlns="http://www.w3.org/2000/svg">
<g style="mix-blend-mode:multiply" opacity="0.03">
<path d="M-1673.93 1770.8C-1308.15 960.677 -461.58 475.066 449.567 89.993C697.787 -14.8151 1093.32 -24.9076 1369.8 43.4117C2026.67 206.058 2651.76 444.012 3294 643.923C3940.79 845 4365.08 667.99 4165.3 868.29C3635.56 1399.32 2922.68 1561.97 2132.62 1284.03C1770.88 1156.71 1424.28 1001.82 1058.01 883.429C458.141 690.117 -152.82 712.631 -692.142 1065.1C-1292.51 1457.55 -1533.67 1963.73 -1334.38 2561.52C-1091.21 3291.3 -437.363 3742.36 431.406 4029.22C1464.65 4370.82 2511.51 4302.89 3539.7 4029.22C4043.2 3894.92 4400.9 3606.11 4398.88 3169.02C4397.88 2975.32 4322.7 2683.8 4155.2 2613.54C3948.86 2526.59 3580.06 2570.06 3337.9 2653.13C2966.07 2781.23 2085.7 3477.24 1091.81 3377.09C476.306 3314.98 -41.8269 2795.59 -11.0518 2620.91C13.1648 2485.44 23.2509 2620.91 911.696 2524.26C1579.67 2451.67 2068.54 2068.54 2432.8 1896.19C3121.96 1570.5 3708.71 1584.48 4222.31 2061.55C5172.81 2944.27 4553.76 4220.21 3542.22 4783.84C1799.13 5755.45 -875.281 5254.7 -1563.94 3559.53C-1593.71 3483.83 -1993.28 2620.53 -1673.93 1770.8Z" fill="#0C0C0C"/>
</g>
</svg>
