<svg width="960" height="900" viewBox="0 0 960 900" fill="none" xmlns="http://www.w3.org/2000/svg">
<path d="M208.592 376.068C240.377 284.571 313.943 229.725 393.121 186.235C414.691 174.397 449.062 173.258 473.087 180.974C530.169 199.343 584.488 226.218 640.299 248.796C696.503 271.506 733.374 251.514 716.013 274.137C669.979 334.112 608.031 352.481 539.376 321.091C507.941 306.711 477.822 289.218 445.994 275.846C393.866 254.013 340.774 256.556 293.908 296.364C241.737 340.688 220.824 397.813 238.142 465.329C259.273 547.751 316.092 598.694 391.586 631.093C481.374 669.673 572.344 662.001 661.693 631.093C705.447 615.924 736.53 583.306 736.355 533.941C736.267 512.064 729.735 479.139 715.18 471.204C697.248 461.383 665.2 466.293 644.157 475.675C611.845 490.143 535.342 568.751 448.975 557.44C395.488 550.425 350.463 491.765 353.137 472.037C355.242 456.736 356.119 472.036 433.323 461.12C491.369 452.922 533.852 409.65 565.505 390.185C625.392 353.402 676.38 354.98 721.01 408.861C803.608 508.556 749.814 652.663 661.912 716.321C510.44 826.056 278.037 769.5 218.194 578.045C215.563 569.584 180.841 472.037 208.592 376.068Z" fill="#0C0C0C"/>
</svg>
