<svg fill="none" height="30" viewBox="0 0 274 30" width="274" xmlns="http://www.w3.org/2000/svg"><g fill="#f2f2f2"><path d="m15.4967 28.7493c-1.1536.4102-2.5294.6238-4.1274.6238-1.62363 0-3.08489-.3418-4.38379-1.0254-1.29035-.6836-2.38415-1.6579-3.27287-2.9311-.88871-1.2647-1.5809-2.7772-2.05089-4.5376-.47854-1.7603-.717811-3.7087-.717811-5.8536 0-2.0936.230721-4.0164.700711-5.7767.46145-1.76035 1.13654-3.27284 2.01671-4.55465.88017-1.2818 1.9398-2.27306 3.17888-2.98232 1.23908-.70927 2.63198-1.068175 4.18726-1.068175 1.6236 0 3.0336.290559 4.2214.871645 1.1878.58108 2.162 1.40144 2.9054 2.46107l-2.6747 3.25573c-1.034-1.49544-2.4269-2.24743-4.1872-2.24743-.9571 0-1.786.27351-2.50382.81187-.70926.53836-1.29889 1.27321-1.76034 2.18756-.46145.9229-.81181 1.98252-1.04254 3.196-.23072 1.2134-.35035 2.4952-.35035 3.8368 0 1.3929.11963 2.709.35035 3.9395.23073 1.2306.58109 2.2987 1.04254 3.2216s1.05108 1.6321 1.76034 2.1534c.70927.5213 1.55522.7777 2.53802.7777.6238 0 1.1792-.0684 1.6834-.2137.5042-.1452.9144-.3333 1.222-.564v-7.0926h-3.3327v-4.0335h7.5627v13.9205c-.8289.6665-1.8202 1.2134-2.9653 1.6236z"/><path d="m35.715 28.7926-1.3587-5.8109h-7.2123l-1.3929 5.8109h-4.6487l6.8192-27.44787h5.9305l6.7081 27.44787zm-4.8538-23.06409h-.1538l-2.9823 13.60429h6.0501z"/><path d="m49.9772 5.30124v23.49136h-4.5717v-23.49136h-5.1529v-3.95651h14.886v3.95651z"/><path d="m71.0672 28.7926v-12.1687h-8.2206v12.1687h-4.6145v-27.44787h4.6145v11.12607h8.2206v-11.12607h4.6145v27.44787z"/><path d="m81.6463 28.7926v-27.44787h12.2883v4.11037h-7.8276v7.2892h7.2465v3.8027h-7.2465v8.101h8.2206v4.1446z"/><path d="m110.949 28.7926-7.794-19.38099h-.12l.077 19.38099h-4.1783v-27.44787h5.3153l7.716 19.50057h.12l-.043-19.50057h4.034v27.44787z"/><path d="m134.867 28.7926v-12.1687h-8.221v12.1687h-4.614v-27.44787h4.614v11.12607h8.221v-11.12607h4.614v27.44787z"/><path d="m155.419 28.7926v-27.44787h12.288v4.11037h-7.828v7.2892h7.247v3.8027h-7.247v8.101h8.221v4.1446z"/><path d="m145.121 28.7926v-27.44787h4.649v27.44787z"/><path d="m173.364 28.7926v-27.44787h4.691v23.14097h7.563v4.3069z"/><path d="m207.862 28.7926.076-21.09006h-.119l-5.503 21.09006h-3.641l-5.392-21.09006h-.12l.077 21.09006h-4.221v-27.44787h6.238l5.273 20.08167h.153l5.153-20.08167h6.555v27.44787z"/><path d="m229.105 6.65098c-1.008-1.21345-2.273-1.82017-3.802-1.82017-.445 0-.863.06836-1.282.21363-.41.14527-.786.36739-1.128.68357-.333.30763-.598.70929-.795 1.20493-.196.48708-.29 1.0682-.29 1.74329 0 1.16217.35 2.05947 1.042 2.69177.701.6324 1.615 1.2391 2.752 1.8031.675.3333 1.358.7263 2.051 1.1622.7.4358 1.333.9656 1.897 1.5894s1.034 1.3587 1.393 2.2132c.358.8545.546 1.8629.546 3.0251 0 1.3416-.213 2.5295-.64 3.5635-.428 1.0339-.992 1.9055-1.701 2.6148s-1.547 1.2476-2.504 1.6065-1.965.5384-3.025.5384c-1.521 0-2.931-.2991-4.221-.8888-1.291-.5896-2.325-1.3416-3.102-2.2474l2.521-3.4096c.589.7264 1.307 1.2904 2.153 1.7091.838.4187 1.701.6238 2.581.6238.983 0 1.794-.3332 2.444-1.0083.641-.6751.965-1.6151.965-2.8286 0-1.1878-.393-2.1277-1.162-2.8285-.777-.7007-1.76-1.3416-2.948-1.9398-.752-.3589-1.453-.7605-2.111-1.2049-.658-.4358-1.239-.9656-1.743-1.5723s-.906-1.316-1.205-2.1278-.444-1.78604-.444-2.93112c0-1.41853.222-2.64045.675-3.66589.453-1.0169 1.043-1.86297 1.786-2.53805.735-.67509 1.572-1.17072 2.495-1.49544.932-.324729 1.872-.487045 2.829-.487045 1.393 0 2.64.230766 3.743.683675 1.093.4529 2.016 1.11941 2.768 1.99958z"/><path d="m248.213 28.7926-7.324-13.3395h-.119v13.3395h-4.649v-27.44787h4.649v11.90377h.119l6.982-11.90377h5.23l-8.067 12.63867 8.571 14.8092z"/><path d="m268.491 28.7926-1.359-5.8109h-7.212l-1.393 5.8109h-4.649l6.82-27.44787h5.93l6.708 27.44787zm-4.845-23.06409h-.154l-2.982 13.60429h6.05z"/></g></svg>
