<svg width="96" height="96" viewBox="0 0 96 96" fill="none" xmlns="http://www.w3.org/2000/svg">
<path fill-rule="evenodd" clip-rule="evenodd" d="M48 96C74.5097 96 96 74.5097 96 48C96 21.4903 74.5097 0 48 0C21.4903 0 0 21.4903 0 48C0 74.5097 21.4903 96 48 96ZM57.6983 28.4681C55.167 28.3528 54.4087 28.328 48 28.328L48.0038 28.3242C41.5951 28.3242 40.8368 28.349 38.3055 28.4643C35.9657 28.571 34.6948 28.9616 33.8488 29.2903C32.8051 29.6746 31.861 30.2882 31.0861 31.0861C30.2882 31.861 29.6746 32.8051 29.2903 33.8488C28.9616 34.6948 28.571 35.9657 28.4643 38.3055C28.349 40.8368 28.3242 41.5951 28.3242 48.0038C28.3242 54.4125 28.349 55.1708 28.4643 57.7021C28.571 60.0419 28.9616 61.3128 29.2903 62.1588C29.6746 63.2025 30.2882 64.1466 31.0861 64.9216C31.861 65.7194 32.8051 66.3331 33.8488 66.7174C34.6948 67.046 35.9657 67.4366 38.3055 67.5433C40.8358 67.6586 41.5951 67.6834 48.0038 67.6834C54.4125 67.6834 55.1718 67.6586 57.7021 67.5433C60.0419 67.4366 61.3128 67.046 62.1588 66.7174C63.1936 66.3177 64.1333 65.706 64.9178 64.9216C65.7022 64.1372 66.3139 63.1974 66.7136 62.1626C67.0422 61.3166 67.4328 60.0457 67.5395 57.7059C67.6548 55.1747 67.6796 54.4163 67.6796 48.0076C67.6796 41.5989 67.6548 40.8406 67.5395 38.3093C67.4328 35.9695 67.0422 34.6986 66.7136 33.8526C66.3293 32.8089 65.7156 31.8648 64.9178 31.0899C64.1428 30.2921 63.1987 29.6784 62.155 29.2941C61.309 28.9654 60.0381 28.5748 57.6983 28.4681ZM38.1083 24.1448C40.6681 24.0276 41.4855 24 48.0038 24L48 24.0038C54.5183 24.0038 55.3414 24.0324 57.8955 24.1486C60.4497 24.2648 62.194 24.6707 63.7212 25.269C65.322 25.8701 66.7727 26.8129 67.9721 28.0318C69.1926 29.2309 70.1373 30.6815 70.7406 32.2826C71.3331 33.8098 71.7399 35.5484 71.8561 38.1083C71.9724 40.6681 72 41.4855 72 48.0038C72 54.5221 71.9733 55.3452 71.8561 57.8993C71.739 60.4535 71.3331 62.2007 70.7406 63.725C70.1238 65.3193 69.1808 66.7671 67.9721 67.9759C66.7633 69.1846 65.3155 70.1276 63.7212 70.7444C62.194 71.3369 60.4554 71.7437 57.8955 71.86C55.3357 71.9762 54.5183 72.0038 48 72.0038C41.4817 72.0038 40.6586 71.9771 38.1045 71.86C35.5503 71.7428 33.8031 71.3369 32.2788 70.7444C30.6777 70.1411 29.2271 69.1964 28.0279 67.9759C26.8074 66.7769 25.8629 65.3263 25.2604 63.725C24.6669 62.1978 24.262 60.4592 24.1448 57.8993C24.0276 55.3395 24 54.5221 24 48.0038C24 41.4855 24.0286 40.6624 24.1448 38.1083C24.261 35.5541 24.6669 33.8098 25.2652 32.2826C25.8663 30.6818 26.8091 29.2311 28.0279 28.0318C29.2269 26.8112 30.6775 25.8667 32.2788 25.2642C33.806 24.6707 35.5484 24.262 38.1083 24.1448ZM47.9999 35.6798C45.5622 35.6798 43.1793 36.4027 41.1525 37.757C39.1256 39.1113 37.5459 41.0363 36.6131 43.2884C35.6803 45.5405 35.4363 48.0187 35.9119 50.4095C36.3875 52.8003 37.5615 54.9964 39.2852 56.72C41.009 58.4436 43.2052 59.6174 45.596 60.0928C47.9869 60.5683 50.465 60.3241 52.7171 59.3911C54.9691 58.4581 56.8939 56.8783 58.2481 54.8513C59.6023 52.8244 60.3249 50.4414 60.3248 48.0037C60.3249 46.3852 60.0062 44.7825 59.3868 43.2872C58.7675 41.7919 57.8596 40.4332 56.7151 39.2888C55.5706 38.1444 54.2119 37.2366 52.7165 36.6174C51.2211 35.9982 49.6184 35.6796 47.9999 35.6798ZM47.9999 56.0034C46.4171 56.0034 44.8699 55.5341 43.5539 54.6548C42.2379 53.7754 41.2122 52.5256 40.6065 51.0633C40.0008 49.601 39.8423 47.992 40.1511 46.4397C40.4599 44.8873 41.2221 43.4614 42.3412 42.3422C43.4604 41.2231 44.8863 40.4609 46.4387 40.1521C47.991 39.8433 49.6 40.0018 51.0623 40.6075C52.5246 41.2132 53.7744 42.2389 54.6538 43.5549C55.5331 44.8709 56.0024 46.4181 56.0024 48.0009C56.0024 50.1233 55.1593 52.1588 53.6585 53.6595C52.1578 55.1603 50.1223 56.0034 47.9999 56.0034ZM63.6918 35.1923C63.6918 36.7829 62.4024 38.0723 60.8118 38.0723C59.2213 38.0723 57.9319 36.7829 57.9319 35.1923C57.9319 33.6018 59.2213 32.3124 60.8118 32.3124C62.4024 32.3124 63.6918 33.6018 63.6918 35.1923Z" fill="white"/>
</svg>
