<svg width="96" height="96" viewBox="0 0 96 96" fill="none" xmlns="http://www.w3.org/2000/svg">
<path fill-rule="evenodd" clip-rule="evenodd" d="M48 96C74.5097 96 96 74.5097 96 48C96 21.4903 74.5097 0 48 0C21.4903 0 0 21.4903 0 48C0 74.5097 21.4903 96 48 96ZM24 32C24 27.4667 27.4667 24 32 24H64C68.5333 24 72 27.4667 72 32V64C72 68.5333 68.5333 72 64 72H32C27.4667 72 24 68.5333 24 64V32ZM56 48C56 43.4667 52.5333 40 48 40C43.4667 40 40 43.4667 40 48C40 52.5333 43.4667 56 48 56C52.5333 56 56 52.5333 56 48ZM61.3333 31.4667C59.7333 31.4667 58.1333 32.8 58.1333 34.6667C58.1333 36.5333 59.4667 37.8667 61.3333 37.8667C63.2 37.8667 64.5333 36.2667 64.5333 34.6667C64.5333 33.0667 62.9333 31.4667 61.3333 31.4667ZM29.3333 64C29.3333 65.6 30.4 66.6667 32 66.6667H64C65.6 66.6667 66.6667 65.6 66.6667 64V48H61.3333C61.3333 55.4667 55.4667 61.3333 48 61.3333C40.5333 61.3333 34.6667 55.4667 34.6667 48H29.3333V64Z" fill="#FFEDE9"/>
</svg>
