<svg viewBox="0 0 2500 2637" fill="none" xmlns="http://www.w3.org/2000/svg">
<path opacity="0.05" d="M47.4019 884.951C188.278 480.086 514.335 237.4 865.263 44.9587C960.864 -7.41952 1113.2 -12.4633 1219.69 21.6796C1472.68 102.963 1713.43 221.881 1960.79 321.787C2209.9 422.276 2373.32 333.815 2296.37 433.916C2092.34 699.299 1817.78 780.582 1513.49 641.683C1374.17 578.053 1240.67 500.649 1099.6 441.481C868.565 344.873 633.254 356.124 425.535 532.271C194.303 728.398 101.423 981.365 178.176 1280.12C271.834 1644.82 523.662 1870.24 858.268 2013.6C1256.22 2184.32 1659.42 2150.37 2055.42 2013.6C2249.35 1946.48 2387.11 1802.15 2386.34 1583.71C2385.95 1486.91 2356.99 1341.22 2292.48 1306.11C2213.01 1262.66 2070.97 1284.38 1977.7 1325.9C1834.49 1389.92 1495.42 1737.75 1112.62 1687.7C875.561 1656.66 676.003 1397.09 687.856 1309.8C697.183 1242.09 701.067 1309.8 1043.25 1261.49C1300.52 1225.22 1488.81 1033.74 1629.1 947.61C1894.53 784.85 2120.52 791.834 2318.33 1030.25C2684.41 1471.39 2445.99 2109.05 2056.39 2390.73C1385.05 2876.29 354.999 2626.04 89.7629 1778.87C78.2985 1741.04 -75.5976 1309.6 47.4019 884.951Z" fill="#EDC8BF"/>
</svg>
