<svg width="96" height="96" viewBox="0 0 96 96" fill="none" xmlns="http://www.w3.org/2000/svg">
<path fill-rule="evenodd" clip-rule="evenodd" d="M48 96C74.5097 96 96 74.5097 96 48C96 21.4903 74.5097 0 48 0C21.4903 0 0 21.4903 0 48C0 74.5097 21.4903 96 48 96ZM70.0132 31.977C72.3557 31.6997 74.6434 31.0728 76.8 30.1174C75.2141 32.4914 73.2166 34.5628 70.9019 36.234C70.9243 36.7419 70.9363 37.2528 70.9363 37.7645C70.9363 53.3787 59.0502 71.3843 37.3141 71.3843C30.8917 71.3908 24.6032 69.5481 19.2 66.0764C20.1253 66.1863 21.0656 66.2417 22.0193 66.2417C27.3404 66.2496 32.5095 64.4678 36.6955 61.1828C31.5245 61.0871 27.1605 57.6693 25.657 52.9755C27.4281 53.3138 29.2529 53.2447 30.9934 52.7735C25.5881 51.6867 21.5152 46.9105 21.5152 41.1867C21.5152 41.1358 21.5152 41.0872 21.5167 41.0378C23.1576 41.9496 24.9925 42.4563 26.8688 42.5159C25.2502 41.4362 23.9234 39.9734 23.0063 38.2575C22.0892 36.5416 21.6101 34.6258 21.6116 32.6801C21.6085 30.5928 22.1608 28.5421 23.2117 26.7386C29.0403 33.889 37.7473 38.594 47.5688 39.087C47.3668 38.2215 47.2621 37.3186 47.2621 36.3933C47.2621 29.8661 52.5536 24.5761 59.0794 24.5761C60.6959 24.5743 62.2956 24.9046 63.7793 25.5464C65.2631 26.1882 66.5991 27.1279 67.7048 28.3072C70.3512 27.787 72.8891 26.8176 75.2082 25.4408C74.3269 28.1776 72.4805 30.5007 70.0132 31.977Z" fill="#FFEDE9"/>
</svg>
