<svg fill="none" height="117" viewBox="0 0 110 117" width="110" xmlns="http://www.w3.org/2000/svg"><path d="m2.08463 38.9819c6.1954-17.8342 20.53457-28.5245 35.96747-37.0015 4.2043-2.307253 10.9039-2.529391 15.5868-1.025405 11.126 3.580515 21.7137 8.818795 32.592 13.219705 10.9552 4.4265 18.1421.5298 14.7581 4.9392-8.9729 11.6901-21.0475 15.2706-34.4295 9.1521-6.1271-2.8029-11.9977-6.2125-18.2017-8.8188-10.1604-4.2556-20.5089-3.76-29.6439 3.9992-10.16897 8.6393-14.25366 19.7826-10.87823 32.9424 4.11883 16.0653 15.19363 25.995 29.90883 32.31 17.5009 7.52 35.2325 6.0245 52.648 0 8.5283-2.9567 14.5865-9.3145 14.5525-18.9365-.017-4.2642-1.29-10.6817-4.127-12.2284-3.4952-1.9142-9.7419-.9571-13.8437.8716-6.2979 2.82-21.2096 18.1419-38.0439 15.9372-10.4254-1.3673-19.2015-12.8011-18.6802-16.6465.4102-2.9823.5811 0 15.6295-2.1278 11.314-1.598 19.5945-10.0322 25.7643-13.8264 11.6729-7.1695 21.6112-6.8619 30.31 3.6404 16.1 19.4322 5.615 47.5208-11.5188 59.9286-29.5242 21.389-74.8232 10.366-86.48768-26.9521-.50418-1.6663-7.27211-20.6797-1.86289-39.377z" fill="#f2f2f2"/></svg>