<svg width="96" height="96" viewBox="0 0 96 96" fill="none" xmlns="http://www.w3.org/2000/svg">
<path fill-rule="evenodd" clip-rule="evenodd" d="M48 96C74.5097 96 96 74.5097 96 48C96 21.4903 74.5097 0 48 0C21.4903 0 0 21.4903 0 48C0 74.5097 21.4903 96 48 96ZM69.4454 33.5496C70.1902 34.2911 70.725 35.213 70.9964 36.2232C72 39.9518 72 47.7273 72 47.7273C72 47.7273 72 55.5028 70.9964 59.2313C70.725 60.2415 70.1902 61.1635 69.4454 61.9049C68.7007 62.6464 67.7721 63.1814 66.7527 63.4563C63 64.4545 48 64.4545 48 64.4545C48 64.4545 33 64.4545 29.2473 63.4563C28.2279 63.1814 27.2993 62.6464 26.5546 61.9049C25.8098 61.1635 25.275 60.2415 25.0036 59.2313C24 55.5028 24 47.7273 24 47.7273C24 47.7273 24 39.9518 25.0036 36.2232C25.275 35.213 25.8098 34.2911 26.5546 33.5496C27.2993 32.8081 28.2279 32.2732 29.2473 31.9982C33 31 48 31 48 31C48 31 63 31 66.7527 31.9982C67.7721 32.2732 68.7007 32.8081 69.4454 33.5496ZM55.6364 47.7273L43.0909 40.6667V54.7878L55.6364 47.7273Z" fill="white"/>
</svg>
